<svg data-name="Capa 1" xmlns="http://www.w3.org/2000/svg" viewBox="0 0 44.4 44.4">
    <defs>
        <style>
            .tag-1 {
                fill: #fff;
            }
            
            .tag-2,
            .tag-3 {
                fill: none;
                stroke: #1d1d1b;
                stroke-miterlimit: 10;
            }
            
            .tag-2 {
                stroke-width: 0.25px;
            }
            
            .tag-3 {
                stroke-width: 0.49px;
            }
            
            .tag-4 {
                fill: #1d1d1b;
            }
        </style>
    </defs>
    <title>Mesa de trabajo 2 copia 3</title>
    <polygon class="tag-1" points="13.31 43.42 0.93 31.03 0.93 13.51 13.31 1.12 30.84 1.12 43.23 13.51 43.23 31.03 30.84 43.42 13.31 43.42" />
    <polygon class="tag-2" points="13.31 43.42 0.93 31.03 0.93 13.51 13.31 1.12 30.84 1.12 43.23 13.51 43.23 31.03 30.84 43.42 13.31 43.42" />
    <polygon class="tag-3" points="14.19 41.32 3.03 30.16 3.03 14.38 14.19 3.22 29.97 3.22 41.12 14.38 41.12 30.16 29.97 41.32 14.19 41.32" />
    <polygon class="tag-4" points="14.98 39.41 4.94 29.37 4.94 15.18 14.98 5.13 29.18 5.13 39.22 15.18 39.22 29.37 29.18 39.41 14.98 39.41" />
    <path class="tag-1" d="M10.51,25.76l.78.25a1.76,1.76,0,0,1-.6,1,1.71,1.71,0,0,1-1.06.31,1.72,1.72,0,0,1-1.3-.54,2.06,2.06,0,0,1-.51-1.48,2.17,2.17,0,0,1,.51-1.54,1.78,1.78,0,0,1,1.35-.56,1.65,1.65,0,0,1,1.19.44,1.56,1.56,0,0,1,.41.73l-.8.19a.81.81,0,0,0-.84-.67.93.93,0,0,0-.72.32,1.57,1.57,0,0,0-.27,1,1.66,1.66,0,0,0,.27,1.07.88.88,0,0,0,.71.33.81.81,0,0,0,.55-.21,1.21,1.21,0,0,0,.33-.64" />
    <path class="tag-1" d="M15.57,27.22h-.88l-.34-.9H12.76l-.33.9h-.86l1.55-4H14Zm-1.48-1.57-.55-1.48L13,25.65Z" />
    <polygon class="tag-1" points="16.02 27.23 16.02 23.28 16.82 23.28 16.82 26.55 18.82 26.55 18.82 27.23 16.02 27.23" />
    <path class="tag-1" d="M19.23,25.26a2.52,2.52,0,0,1,.18-1,1.9,1.9,0,0,1,.37-.55,1.62,1.62,0,0,1,.52-.36,2.22,2.22,0,0,1,.85-.15,1.88,1.88,0,0,1,1.41.54,2.11,2.11,0,0,1,.53,1.52,2.08,2.08,0,0,1-.52,1.51,2.11,2.11,0,0,1-2.82,0,2,2,0,0,1-.52-1.49m.83,0a1.51,1.51,0,0,0,.31,1,1,1,0,0,0,.79.35,1,1,0,0,0,.79-.35,1.5,1.5,0,0,0,.31-1,1.48,1.48,0,0,0-.3-1,1.11,1.11,0,0,0-1.6,0,1.53,1.53,0,0,0-.3,1" />
    <path class="tag-1" d="M23.72,27.23v-4h1.69a2.91,2.91,0,0,1,.93.11.9.9,0,0,1,.46.38,1.13,1.13,0,0,1,.18.63,1,1,0,0,1-.27.74,1.25,1.25,0,0,1-.78.37,2.12,2.12,0,0,1,.43.33,4.74,4.74,0,0,1,.45.65l.49.78h-1l-.58-.87a5.42,5.42,0,0,0-.43-.59.54.54,0,0,0-.24-.16,1.25,1.25,0,0,0-.4-.05h-.17v1.67Zm.8-2.3h.6a3.17,3.17,0,0,0,.72-.05.44.44,0,0,0,.23-.17.56.56,0,0,0,.08-.3.48.48,0,0,0-.11-.32.44.44,0,0,0-.3-.16H24.52Z" />
    <path class="tag-1" d="M27.62,23,28,22.2h.86L28.1,23Zm.09.23h.8v4h-.8Z" />
    <path class="tag-1" d="M32.87,27.22H32l-.35-.9H30.06l-.33.9h-.85l1.55-4h.85Zm-1.48-1.57-.55-1.48-.54,1.48Z" />
    <path class="tag-1" d="M33.09,25.93l.79-.08a.91.91,0,0,0,.28.58.85.85,0,0,0,.58.19.9.9,0,0,0,.59-.17.48.48,0,0,0,.2-.38.32.32,0,0,0-.09-.24.6.6,0,0,0-.29-.18c-.09,0-.3-.09-.64-.17a2.38,2.38,0,0,1-.91-.39,1.05,1.05,0,0,1-.36-.8,1,1,0,0,1,.17-.57,1.14,1.14,0,0,1,.5-.41,2,2,0,0,1,.78-.13,1.73,1.73,0,0,1,1.13.32,1.21,1.21,0,0,1,.4.88l-.81,0a.66.66,0,0,0-.22-.44.8.8,0,0,0-.51-.14.92.92,0,0,0-.55.15.3.3,0,0,0,0,.48,1.89,1.89,0,0,0,.73.27,3.61,3.61,0,0,1,.87.29,1.07,1.07,0,0,1,.44.4,1.15,1.15,0,0,1,.16.64,1.16,1.16,0,0,1-.73,1.08,2.17,2.17,0,0,1-.86.15A1.73,1.73,0,0,1,33.58,27a1.57,1.57,0,0,1-.49-1" />
    <path class="tag-1" d="M15.67,20.61H15l-.29-.75H13.34l-.27.75h-.71l1.29-3.3h.7ZM14.44,19.3,14,18.08l-.45,1.22Z" />
    <polygon class="tag-1" points="16.04 20.61 16.04 17.34 16.71 17.34 16.71 20.05 18.36 20.05 18.36 20.61 16.04 20.61" />
    <polygon class="tag-1" points="19.24 20.61 19.24 17.87 18.26 17.87 18.26 17.31 20.88 17.31 20.88 17.87 19.91 17.87 19.91 20.61 19.24 20.61" />
    <path class="tag-1" d="M21.09,19a2.12,2.12,0,0,1,.15-.85,1.9,1.9,0,0,1,.31-.45,1.39,1.39,0,0,1,.43-.3,1.91,1.91,0,0,1,.71-.13,1.51,1.51,0,0,1,1.16.46A1.69,1.69,0,0,1,24.29,19a1.71,1.71,0,0,1-.43,1.25,1.72,1.72,0,0,1-2.33,0A1.72,1.72,0,0,1,21.09,19m.69,0a1.27,1.27,0,0,0,.26.85.88.88,0,0,0,1.31,0A1.26,1.26,0,0,0,23.6,19a1.29,1.29,0,0,0-.24-.85.87.87,0,0,0-.66-.28.86.86,0,0,0-.67.29,1.22,1.22,0,0,0-.25.85" />
    <polygon class="tag-1" points="26.09 20.61 26.09 17.31 28.54 17.31 28.54 17.87 26.76 17.87 26.76 18.6 28.41 18.6 28.41 19.16 26.76 19.16 26.76 20.05 28.6 20.05 28.6 20.61 26.09 20.61" />
    <polygon class="tag-1" points="29.17 20.61 29.17 17.31 29.82 17.31 31.17 19.51 31.17 17.31 31.79 17.31 31.79 20.61 31.12 20.61 29.79 18.46 29.79 20.61 29.17 20.61" />
    <polygon class="tag-1" points="16.94 37.4 16.94 35.43 17.54 35.43 17.89 36.77 18.25 35.43 18.84 35.43 18.84 37.4 18.47 37.4 18.47 35.85 18.08 37.4 17.7 37.4 17.31 35.85 17.31 37.4 16.94 37.4" />
    <rect class="tag-1" x="19.23" y="35.43" width="0.4" height="1.97" />
    <polygon class="tag-1" points="20.01 37.4 20.01 35.43 20.39 35.43 21.2 36.74 21.2 35.43 21.57 35.43 21.57 37.4 21.17 37.4 20.38 36.12 20.38 37.4 20.01 37.4" />
    <path class="tag-1" d="M21.89,36.76l.39,0a.47.47,0,0,0,.14.29.44.44,0,0,0,.29.09A.44.44,0,0,0,23,37a.24.24,0,0,0,.1-.19.16.16,0,0,0,0-.12.42.42,0,0,0-.14-.09l-.32-.08a1.19,1.19,0,0,1-.45-.2A.51.51,0,0,1,22,36a.52.52,0,0,1,.09-.29.47.47,0,0,1,.24-.19.94.94,0,0,1,.39-.07.83.83,0,0,1,.56.16.56.56,0,0,1,.19.43L23,36a.42.42,0,0,0-.11-.22.57.57,0,0,0-.53,0,.15.15,0,0,0,0,.24,1.2,1.2,0,0,0,.36.13,2,2,0,0,1,.43.14.54.54,0,0,1,.22.2.63.63,0,0,1,.08.32.59.59,0,0,1-.09.31.64.64,0,0,1-.27.22,1.08,1.08,0,0,1-.43.07.81.81,0,0,1-.57-.17.68.68,0,0,1-.24-.5" />
    <path class="tag-1" d="M25.6,37.4h-.43L25,37h-.79l-.16.45h-.43l.77-2h.42Zm-.73-.78-.27-.73-.27.73Z" />
    <polygon class="tag-1" points="25.82 37.4 25.82 35.45 26.22 35.45 26.22 37.07 27.21 37.07 27.21 37.4 25.82 37.4" />
</svg>
