<svg data-name="Capa 1" xmlns="http://www.w3.org/2000/svg" viewBox="0 0 44.4 44.4">
    <defs>
        <style>
            .tag-1 {
                fill: #fff;
            }
            
            .tag-2,
            .tag-3 {
                fill: none;
                stroke: #1d1d1b;
                stroke-miterlimit: 10;
            }
            
            .tag-2 {
                stroke-width: 0.25px;
            }
            
            .tag-3 {
                stroke-width: 0.49px;
            }
            
            .tag-4 {
                fill: #1d1d1b;
            }
        </style>
    </defs>
    <title>Mesa de trabajo 2</title>
    <polygon class="tag-1" points="13.52 43.42 1.12 31.03 1.12 13.51 13.52 1.12 31.04 1.12 43.42 13.51 43.42 31.03 31.04 43.42 13.52 43.42" />
    <polygon class="tag-2" points="13.52 43.42 1.12 31.03 1.12 13.51 13.52 1.12 31.04 1.12 43.42 13.51 43.42 31.03 31.04 43.42 13.52 43.42" />
    <polygon class="tag-3" points="14.38 41.32 3.23 30.16 3.23 14.38 14.38 3.22 30.17 3.22 41.32 14.38 41.32 30.16 30.17 41.32 14.38 41.32" />
    <polygon class="tag-4" points="15.18 39.41 5.14 29.37 5.14 15.18 15.18 5.13 29.38 5.13 39.41 15.18 39.41 29.37 29.38 39.41 15.18 39.41" />
    <path class="tag-1" d="M15.87,20.61h-.72l-.29-.75H13.54l-.27.75h-.71l1.29-3.3h.7ZM14.64,19.3l-.45-1.22-.45,1.22Z" />
    <polygon class="tag-1" points="16.24 20.61 16.24 17.34 16.91 17.34 16.91 20.05 18.56 20.05 18.56 20.61 16.24 20.61" />
    <polygon class="tag-1" points="19.44 20.61 19.44 17.87 18.46 17.87 18.46 17.31 21.08 17.31 21.08 17.87 20.11 17.87 20.11 20.61 19.44 20.61" />
    <path class="tag-1" d="M21.29,19a2.12,2.12,0,0,1,.15-.85,1.9,1.9,0,0,1,.31-.45,1.39,1.39,0,0,1,.43-.3,1.91,1.91,0,0,1,.71-.13,1.51,1.51,0,0,1,1.16.46A1.69,1.69,0,0,1,24.49,19a1.71,1.71,0,0,1-.43,1.25,1.72,1.72,0,0,1-2.33,0A1.72,1.72,0,0,1,21.29,19M22,19a1.27,1.27,0,0,0,.26.85.88.88,0,0,0,1.31,0A1.26,1.26,0,0,0,23.8,19a1.23,1.23,0,0,0-.25-.85.91.91,0,0,0-1.32,0A1.22,1.22,0,0,0,22,19" />
    <polygon class="tag-1" points="26.29 20.61 26.29 17.31 28.74 17.31 28.74 17.87 26.96 17.87 26.96 18.6 28.61 18.6 28.61 19.16 26.96 19.16 26.96 20.05 28.8 20.05 28.8 20.61 26.29 20.61" />
    <polygon class="tag-1" points="29.37 20.61 29.37 17.31 30.02 17.31 31.37 19.51 31.37 17.31 31.99 17.31 31.99 20.61 31.32 20.61 29.99 18.46 29.99 20.61 29.37 20.61" />
    <path class="tag-1" d="M11,27.22h-.88l-.35-.9H8.14l-.33.9H7l1.55-4h.85ZM9.48,25.65l-.55-1.48-.54,1.48Z" />
    <polygon class="tag-1" points="11.04 27.23 11.04 26.5 13.13 23.92 11.27 23.92 11.27 23.24 14.19 23.24 14.19 23.87 12.01 26.55 14.27 26.55 14.27 27.23 11.04 27.23" />
    <path class="tag-1" d="M14.77,23.24h.81V25.4a4.64,4.64,0,0,0,0,.67.62.62,0,0,0,.24.39,1,1,0,0,0,1,0,.54.54,0,0,0,.21-.35,5.14,5.14,0,0,0,0-.67V23.24H18v2.09a4.85,4.85,0,0,1-.07,1,1.06,1.06,0,0,1-.24.5,1.18,1.18,0,0,1-.47.32,2,2,0,0,1-.76.12,2.21,2.21,0,0,1-.87-.13,1.26,1.26,0,0,1-.46-.34,1.1,1.1,0,0,1-.23-.44,5,5,0,0,1-.08-1Zm1.1-.22.37-.82h.86l-.75.82Z" />
    <path class="tag-1" d="M21.34,25.76l.78.25a1.75,1.75,0,0,1-.59,1,1.89,1.89,0,0,1-2.36-.23,2,2,0,0,1-.52-1.48,2.17,2.17,0,0,1,.52-1.54,1.74,1.74,0,0,1,1.35-.55,1.62,1.62,0,0,1,1.18.43,1.48,1.48,0,0,1,.41.73l-.79.19A.86.86,0,0,0,21,24a.84.84,0,0,0-.54-.18.9.9,0,0,0-.72.32,1.53,1.53,0,0,0-.28,1,1.71,1.71,0,0,0,.27,1.08.91.91,0,0,0,.71.32A.79.79,0,0,0,21,26.4a1.09,1.09,0,0,0,.33-.64" />
    <path class="tag-1" d="M26.4,27.22h-.87l-.35-.9H23.59l-.33.9h-.85l1.55-4h.85Zm-1.48-1.57-.55-1.48-.53,1.48Z" />
    <path class="tag-1" d="M26.83,27.23v-4h1.69a2.91,2.91,0,0,1,.93.11.9.9,0,0,1,.46.38,1.13,1.13,0,0,1,.18.63,1,1,0,0,1-.27.74,1.25,1.25,0,0,1-.78.37,2.12,2.12,0,0,1,.43.33,4.74,4.74,0,0,1,.45.65l.49.78h-1l-.58-.87a5.42,5.42,0,0,0-.43-.59.54.54,0,0,0-.24-.16,1.25,1.25,0,0,0-.4-.05h-.16v1.67Zm.81-2.3h.59a3.11,3.11,0,0,0,.72-.05.44.44,0,0,0,.23-.17.56.56,0,0,0,.08-.3.48.48,0,0,0-.11-.32.44.44,0,0,0-.3-.16H27.64Z" />
    <polygon class="tag-1" points="30.85 27.23 30.85 23.24 33.8 23.24 33.8 23.92 31.65 23.92 31.65 24.8 33.65 24.8 33.65 25.47 31.65 25.47 31.65 26.55 33.87 26.55 33.87 27.23 30.85 27.23" />
    <path class="tag-1" d="M34.35,25.93l.78-.08a1,1,0,0,0,.29.58.83.83,0,0,0,.58.19.9.9,0,0,0,.59-.17.47.47,0,0,0,.19-.38.32.32,0,0,0-.08-.24.6.6,0,0,0-.29-.18l-.64-.17a2.38,2.38,0,0,1-.91-.39,1.05,1.05,0,0,1-.36-.8,1,1,0,0,1,.17-.57,1.08,1.08,0,0,1,.5-.41,2,2,0,0,1,.78-.13,1.75,1.75,0,0,1,1.13.32,1.17,1.17,0,0,1,.39.88l-.8,0a.66.66,0,0,0-.22-.44.8.8,0,0,0-.51-.14,1,1,0,0,0-.55.14.33.33,0,0,0-.13.25.29.29,0,0,0,.12.24,2,2,0,0,0,.74.27A3.78,3.78,0,0,1,37,25a1.14,1.14,0,0,1,.44.4,1.15,1.15,0,0,1,.16.64,1.25,1.25,0,0,1-.19.64,1.18,1.18,0,0,1-.54.44,2.19,2.19,0,0,1-.87.15A1.75,1.75,0,0,1,34.83,27a1.56,1.56,0,0,1-.48-1" />
    <polygon class="tag-1" points="17.14 37.4 17.14 35.43 17.74 35.43 18.09 36.77 18.45 35.43 19.04 35.43 19.04 37.4 18.67 37.4 18.67 35.85 18.28 37.4 17.9 37.4 17.51 35.85 17.51 37.4 17.14 37.4" />
    <rect class="tag-1" x="19.43" y="35.43" width="0.4" height="1.97" />
    <polygon class="tag-1" points="20.21 37.4 20.21 35.43 20.59 35.43 21.4 36.74 21.4 35.43 21.77 35.43 21.77 37.4 21.37 37.4 20.58 36.12 20.58 37.4 20.21 37.4" />
    <path class="tag-1" d="M22.09,36.76l.39,0a.47.47,0,0,0,.14.29.42.42,0,0,0,.29.09.44.44,0,0,0,.28-.08.24.24,0,0,0,.1-.19.16.16,0,0,0,0-.12.42.42,0,0,0-.14-.09l-.32-.08a1.19,1.19,0,0,1-.45-.2.51.51,0,0,1-.18-.39.6.6,0,0,1,.08-.29.54.54,0,0,1,.25-.19.94.94,0,0,1,.39-.07.83.83,0,0,1,.56.16.56.56,0,0,1,.19.43l-.39,0a.42.42,0,0,0-.11-.22.57.57,0,0,0-.53,0,.15.15,0,0,0,0,.24,1.2,1.2,0,0,0,.36.13,2,2,0,0,1,.43.14.54.54,0,0,1,.22.2.63.63,0,0,1,.08.32.59.59,0,0,1-.09.31.64.64,0,0,1-.27.22,1.11,1.11,0,0,1-.43.07.81.81,0,0,1-.57-.17.68.68,0,0,1-.24-.5" />
    <path class="tag-1" d="M25.8,37.4h-.43L25.2,37h-.79l-.16.45h-.43l.77-2H25Zm-.73-.78-.27-.73-.27.73Z" />
    <polygon class="tag-1" points="26.02 37.4 26.02 35.45 26.42 35.45 26.42 37.07 27.41 37.07 27.41 37.4 26.02 37.4" />
</svg>
