<svg id="sello-alto-grasas" data-name="Capa 1" xmlns="http://www.w3.org/2000/svg" viewBox="0 0 44.4 44.4">
    <defs>
        <style>
            .tag-1 {
                fill: #fff;
            }
            
            .tag-2,
            .tag-3 {
                fill: none;
                stroke: #1d1d1b;
                stroke-miterlimit: 10;
            }
            
            .tag-2 {
                stroke-width: 0.25px;
            }
            
            .tag-3 {
                stroke-width: 0.49px;
            }
            
            .tag-4 {
                fill: #1d1d1b;
            }
        </style>
    </defs>
    <title>Mesa de trabajo 2 copia</title>
    <polygon class="tag-1" points="13.31 43.42 0.93 31.03 0.93 13.51 13.31 1.12 30.84 1.12 43.23 13.51 43.23 31.03 30.84 43.42 13.31 43.42" />
    <polygon class="tag-2" points="13.31 43.42 0.93 31.03 0.93 13.51 13.31 1.12 30.84 1.12 43.23 13.51 43.23 31.03 30.84 43.42 13.31 43.42" />
    <polygon class="tag-3" points="14.19 41.32 3.03 30.16 3.03 14.38 14.19 3.22 29.97 3.22 41.12 14.38 41.12 30.16 29.97 41.32 14.19 41.32" />
    <polygon class="tag-4" points="14.98 39.41 4.94 29.37 4.94 15.18 14.98 5.13 29.18 5.13 39.22 15.18 39.22 29.37 29.18 39.41 14.98 39.41" />
    <path class="tag-1" d="M13.47,22.66v-.6H15v1.42a2.06,2.06,0,0,1-.65.38,2.45,2.45,0,0,1-.87.17,1.89,1.89,0,0,1-1-.24,1.46,1.46,0,0,1-.63-.67,2.14,2.14,0,0,1-.21-.95,2,2,0,0,1,.24-1,1.57,1.57,0,0,1,.68-.67,2,2,0,0,1,.85-.17,1.76,1.76,0,0,1,1,.27,1.33,1.33,0,0,1,.48.77l-.72.14a.73.73,0,0,0-.28-.42.86.86,0,0,0-.52-.15,1,1,0,0,0-.75.3,1.28,1.28,0,0,0-.28.89,1.4,1.4,0,0,0,.29,1,.92.92,0,0,0,.73.31,1.25,1.25,0,0,0,.46-.09,1.45,1.45,0,0,0,.39-.21v-.45Z" />
    <path class="tag-1" d="M15.69,24V20.41H17.2a2.75,2.75,0,0,1,.83.09.85.85,0,0,1,.41.34,1,1,0,0,1,.16.57,1,1,0,0,1-.24.66,1.15,1.15,0,0,1-.7.33,2,2,0,0,1,.38.29,3.32,3.32,0,0,1,.41.58l.44.7H18l-.52-.78a6.07,6.07,0,0,0-.38-.52.62.62,0,0,0-.22-.15,1,1,0,0,0-.36,0h-.14V24Zm.72-2.06h.53a2.71,2.71,0,0,0,.64,0,.41.41,0,0,0,.21-.15.54.54,0,0,0,.07-.27.41.41,0,0,0-.1-.29.44.44,0,0,0-.27-.14H16.41Z" />
    <path class="tag-1" d="M22.49,24H21.7l-.31-.81H20l-.29.81h-.77l1.39-3.56h.76Zm-1.33-1.41-.49-1.32-.48,1.32Z" />
    <path class="tag-1" d="M22.68,22.81l.7-.07a.88.88,0,0,0,.26.52.77.77,0,0,0,.52.16.83.83,0,0,0,.52-.14.45.45,0,0,0,.18-.35.31.31,0,0,0-.07-.21.68.68,0,0,0-.26-.16L24,22.41a2.22,2.22,0,0,1-.81-.35.94.94,0,0,1-.33-.72.88.88,0,0,1,.16-.51.93.93,0,0,1,.44-.36,1.83,1.83,0,0,1,.7-.12,1.49,1.49,0,0,1,1,.29,1,1,0,0,1,.36.78l-.72,0a.61.61,0,0,0-.2-.4.71.71,0,0,0-.45-.12.82.82,0,0,0-.5.13.28.28,0,0,0-.11.22.29.29,0,0,0,.11.22,2.19,2.19,0,0,0,.66.24A3.13,3.13,0,0,1,25,22a1.07,1.07,0,0,1,.4.36,1.15,1.15,0,0,1,.14.57,1.08,1.08,0,0,1-.17.57,1.1,1.1,0,0,1-.48.4,2,2,0,0,1-.78.13,1.51,1.51,0,0,1-1-.31,1.38,1.38,0,0,1-.44-.91" />
    <path class="tag-1" d="M29.39,24h-.78l-.31-.81H26.88l-.3.81h-.76l1.39-3.56H28Zm-1.32-1.41-.49-1.32-.48,1.32Z" />
    <path class="tag-1" d="M29.59,22.81l.7-.07a.83.83,0,0,0,.26.52.77.77,0,0,0,.52.16.85.85,0,0,0,.52-.14.45.45,0,0,0,.18-.35.32.32,0,0,0-.08-.21.61.61,0,0,0-.26-.16l-.57-.15a2.07,2.07,0,0,1-.81-.35.95.95,0,0,1-.18-1.23,1,1,0,0,1,.45-.36,1.83,1.83,0,0,1,.7-.12,1.49,1.49,0,0,1,1,.29,1.06,1.06,0,0,1,.35.78l-.72,0a.61.61,0,0,0-.19-.4.74.74,0,0,0-.46-.12.79.79,0,0,0-.49.13.28.28,0,0,0-.11.22.28.28,0,0,0,.1.22,2.32,2.32,0,0,0,.66.24A3.4,3.4,0,0,1,32,22a1,1,0,0,1,.39.36,1.05,1.05,0,0,1,.15.57,1,1,0,0,1-.66,1,1.9,1.9,0,0,1-.77.13,1.54,1.54,0,0,1-1-.31,1.38,1.38,0,0,1-.43-.91" />
    <path class="tag-1" d="M6.85,28.15l.7-.07a.88.88,0,0,0,.25.52.8.8,0,0,0,.53.17.79.79,0,0,0,.52-.15A.43.43,0,0,0,9,28.28.33.33,0,0,0,9,28.06a.52.52,0,0,0-.26-.15l-.57-.16a1.81,1.81,0,0,1-.81-.35A.92.92,0,0,1,7,26.68a1,1,0,0,1,.15-.51,1.09,1.09,0,0,1,.45-.36,1.79,1.79,0,0,1,.7-.12,1.56,1.56,0,0,1,1,.29,1.06,1.06,0,0,1,.35.79l-.72,0a.57.57,0,0,0-.2-.39.71.71,0,0,0-.45-.12.87.87,0,0,0-.49.12.26.26,0,0,0-.11.23.26.26,0,0,0,.1.21,1.74,1.74,0,0,0,.66.24,3.33,3.33,0,0,1,.78.26.85.85,0,0,1,.39.36,1,1,0,0,1,.14.56,1,1,0,0,1-.17.58,1,1,0,0,1-.48.39,1.9,1.9,0,0,1-.77.13,1.54,1.54,0,0,1-1-.31,1.38,1.38,0,0,1-.43-.91" />
    <path class="tag-1" d="M13.56,29.31h-.79l-.31-.81H11l-.29.81H10l1.38-3.56h.76ZM12.23,27.9l-.49-1.32-.48,1.32Z" />
    <polygon class="tag-1" points="14.37 29.31 14.37 26.35 13.31 26.35 13.31 25.75 16.14 25.75 16.14 26.35 15.09 26.35 15.09 29.31 14.37 29.31" />
    <path class="tag-1" d="M16.6,25.75h.72v1.93a3.54,3.54,0,0,0,0,.59.52.52,0,0,0,.22.35.73.73,0,0,0,.47.14.68.68,0,0,0,.46-.13.45.45,0,0,0,.19-.3,4.4,4.4,0,0,0,0-.61v-2h.72v1.87a4.73,4.73,0,0,1-.06.91,1.06,1.06,0,0,1-.21.44,1.17,1.17,0,0,1-.42.29,2.37,2.37,0,0,1-1.46,0,1.22,1.22,0,0,1-.42-.3,1,1,0,0,1-.2-.4,4.78,4.78,0,0,1-.07-.9Z" />
    <path class="tag-1" d="M20.2,29.31V25.75h1.51a2.4,2.4,0,0,1,.83.1.81.81,0,0,1,.42.34,1,1,0,0,1,.15.56,1,1,0,0,1-.23.66,1.21,1.21,0,0,1-.71.33,1.75,1.75,0,0,1,.39.3,4.11,4.11,0,0,1,.4.58l.44.69h-.86L22,28.54a4.87,4.87,0,0,0-.38-.53.69.69,0,0,0-.21-.15,1.52,1.52,0,0,0-.37,0h-.14v1.49Zm.72-2h.53a2.66,2.66,0,0,0,.65-.05.43.43,0,0,0,.2-.15.45.45,0,0,0,.07-.27.39.39,0,0,0-.1-.28.39.39,0,0,0-.27-.14,4.14,4.14,0,0,0-.52,0h-.56Z" />
    <path class="tag-1" d="M27,29.31h-.78l-.31-.81H24.48l-.29.81h-.76l1.38-3.56h.76ZM25.67,27.9l-.49-1.32L24.7,27.9Z" />
    <path class="tag-1" d="M27.38,25.75h1.31a2.39,2.39,0,0,1,.68.07,1.14,1.14,0,0,1,.53.33,1.42,1.42,0,0,1,.34.57,2.6,2.6,0,0,1,.12.85,2.37,2.37,0,0,1-.11.75,1.63,1.63,0,0,1-.38.63,1.32,1.32,0,0,1-.51.29,2.15,2.15,0,0,1-.63.07H27.38Zm.71.6v2.36h.54a2.29,2.29,0,0,0,.44,0,.73.73,0,0,0,.29-.15.71.71,0,0,0,.18-.35,2.15,2.15,0,0,0,.08-.65,2.05,2.05,0,0,0-.08-.63.67.67,0,0,0-.2-.34.65.65,0,0,0-.33-.17,2.58,2.58,0,0,0-.59,0Z" />
    <path class="tag-1" d="M34.18,29.31H33.4l-.31-.81H31.66l-.29.81h-.76L32,25.75h.76ZM32.86,27.9l-.49-1.32-.49,1.32Z" />
    <path class="tag-1" d="M34.38,28.15l.7-.07a.88.88,0,0,0,.25.52.94.94,0,0,0,1.05,0,.42.42,0,0,0,.17-.34.32.32,0,0,0-.07-.22.58.58,0,0,0-.26-.15l-.57-.16a1.81,1.81,0,0,1-.81-.35.92.92,0,0,1-.33-.72,1,1,0,0,1,.15-.51,1,1,0,0,1,.45-.36,1.79,1.79,0,0,1,.7-.12,1.51,1.51,0,0,1,1,.29,1,1,0,0,1,.36.79l-.72,0a.57.57,0,0,0-.2-.39.71.71,0,0,0-.45-.12.87.87,0,0,0-.49.12.27.27,0,0,0-.12.23.28.28,0,0,0,.11.21,1.74,1.74,0,0,0,.66.24,3.33,3.33,0,0,1,.78.26.9.9,0,0,1,.39.36,1.08,1.08,0,0,1,.14.56,1,1,0,0,1-.17.58,1,1,0,0,1-.48.39,1.94,1.94,0,0,1-.77.13,1.54,1.54,0,0,1-1-.31,1.38,1.38,0,0,1-.43-.91" />
    <path class="tag-1" d="M15.66,18.49h-.73l-.29-.75H13.33l-.28.75h-.7l1.28-3.3h.7Zm-1.23-1.3L14,16l-.44,1.23Z" />
    <polygon class="tag-1" points="16.03 18.49 16.03 15.22 16.69 15.22 16.69 17.94 18.35 17.94 18.35 18.49 16.03 18.49" />
    <polygon class="tag-1" points="19.22 18.49 19.22 15.75 18.25 15.75 18.25 15.19 20.87 15.19 20.87 15.75 19.89 15.75 19.89 18.49 19.22 18.49" />
    <path class="tag-1" d="M21.08,16.86a2.1,2.1,0,0,1,.15-.84,1.39,1.39,0,0,1,.31-.45,1.17,1.17,0,0,1,.42-.3,1.8,1.8,0,0,1,.71-.13,1.55,1.55,0,0,1,1.17.45,1.74,1.74,0,0,1,.44,1.26,1.73,1.73,0,0,1-.44,1.25,1.53,1.53,0,0,1-1.16.45,1.55,1.55,0,0,1-1.17-.45,1.7,1.7,0,0,1-.43-1.24m.68,0a1.25,1.25,0,0,0,.26.85.88.88,0,0,0,.66.29.83.83,0,0,0,.65-.29,1.26,1.26,0,0,0,.26-.86,1.19,1.19,0,0,0-.25-.84A.92.92,0,0,0,22,16a1.23,1.23,0,0,0-.26.85" />
    <polygon class="tag-1" points="26.08 18.49 26.08 15.19 28.52 15.19 28.52 15.75 26.74 15.75 26.74 16.48 28.4 16.48 28.4 17.04 26.74 17.04 26.74 17.94 28.59 17.94 28.59 18.49 26.08 18.49" />
    <polygon class="tag-1" points="29.16 18.49 29.16 15.19 29.81 15.19 31.16 17.4 31.16 15.19 31.77 15.19 31.77 18.49 31.11 18.49 29.78 16.34 29.78 18.49 29.16 18.49" />
    <polygon class="tag-1" points="16.94 37.4 16.94 35.43 17.54 35.43 17.89 36.77 18.25 35.43 18.84 35.43 18.84 37.4 18.47 37.4 18.47 35.85 18.08 37.4 17.7 37.4 17.31 35.85 17.31 37.4 16.94 37.4" />
    <rect class="tag-1" x="19.23" y="35.43" width="0.4" height="1.97" />
    <polygon class="tag-1" points="20.01 37.4 20.01 35.43 20.39 35.43 21.2 36.74 21.2 35.43 21.57 35.43 21.57 37.4 21.17 37.4 20.38 36.12 20.38 37.4 20.01 37.4" />
    <path class="tag-1" d="M21.89,36.76l.39,0a.47.47,0,0,0,.14.29.44.44,0,0,0,.29.09A.44.44,0,0,0,23,37a.24.24,0,0,0,.1-.19.16.16,0,0,0,0-.12.42.42,0,0,0-.14-.09l-.32-.08a1.19,1.19,0,0,1-.45-.2A.51.51,0,0,1,22,36a.52.52,0,0,1,.09-.29.47.47,0,0,1,.24-.19.94.94,0,0,1,.39-.07.83.83,0,0,1,.56.16.56.56,0,0,1,.19.43L23,36a.42.42,0,0,0-.11-.22.57.57,0,0,0-.53,0,.15.15,0,0,0,0,.24,1.2,1.2,0,0,0,.36.13,2,2,0,0,1,.43.14.54.54,0,0,1,.22.2.63.63,0,0,1,.08.32.59.59,0,0,1-.09.31.64.64,0,0,1-.27.22,1.08,1.08,0,0,1-.43.07.81.81,0,0,1-.57-.17.68.68,0,0,1-.24-.5" />
    <path class="tag-1" d="M25.6,37.4h-.43L25,37h-.79l-.16.45h-.43l.77-2h.42Zm-.73-.78-.27-.73-.27.73Z" />
    <polygon class="tag-1" points="25.82 37.4 25.82 35.45 26.22 35.45 26.22 37.07 27.21 37.07 27.21 37.4 25.82 37.4" />
</svg>
