<svg xmlns="http://www.w3.org/2000/svg" viewBox="0 0 44.4 44.4">
    <defs>
        <style>
            .tag-1 {
                fill: #fff;
            }
            
            .tag-2,
            .tag-3 {
                fill: none;
                stroke: #1d1d1b;
                stroke-miterlimit: 10;
            }
            
            .tag-2 {
                stroke-width: 0.25px;
            }
            
            .tag-3 {
                stroke-width: 0.49px;
            }
            
            .tag-4 {
                fill: #1d1d1b;
            }
        </style>
    </defs>
    <title>Mesa de trabajo 2 copia 2</title>
    <polygon class="tag-1" points="13.31 43.42 0.93 31.04 0.93 13.51 13.31 1.12 30.84 1.12 43.23 13.51 43.23 31.04 30.84 43.42 13.31 43.42" />
    <polygon class="tag-2" points="13.31 43.42 0.93 31.04 0.93 13.51 13.31 1.12 30.84 1.12 43.23 13.51 43.23 31.04 30.84 43.42 13.31 43.42" />
    <polygon class="tag-3" points="14.19 41.32 3.03 30.16 3.03 14.38 14.19 3.22 29.97 3.22 41.13 14.38 41.13 30.16 29.97 41.32 14.19 41.32" />
    <polygon class="tag-4" points="14.98 39.41 4.94 29.37 4.94 15.18 14.98 5.13 29.18 5.13 39.22 15.18 39.22 29.37 29.18 39.41 14.98 39.41" />
    <path class="tag-1" d="M13.33,25.93l.78-.08a1,1,0,0,0,.28.58.85.85,0,0,0,.59.19.87.87,0,0,0,.58-.17.48.48,0,0,0,.2-.38.36.36,0,0,0-.08-.24.72.72,0,0,0-.29-.18l-.65-.17a2.25,2.25,0,0,1-.9-.39,1,1,0,0,1-.2-1.37,1.14,1.14,0,0,1,.5-.41,2.06,2.06,0,0,1,.78-.13,1.73,1.73,0,0,1,1.13.32,1.18,1.18,0,0,1,.4.88l-.81,0a.62.62,0,0,0-.22-.44.8.8,0,0,0-.51-.14.87.87,0,0,0-.54.15.27.27,0,0,0-.13.24.29.29,0,0,0,.12.24,2,2,0,0,0,.74.27A3.51,3.51,0,0,1,16,25a1.07,1.07,0,0,1,.44.4,1.15,1.15,0,0,1,.16.64,1.16,1.16,0,0,1-.19.64,1.08,1.08,0,0,1-.54.44,2.17,2.17,0,0,1-.86.15A1.75,1.75,0,0,1,13.81,27a1.52,1.52,0,0,1-.48-1" />
    <path class="tag-1" d="M17.07,25.26a2.51,2.51,0,0,1,.19-1,1.72,1.72,0,0,1,.37-.55,1.59,1.59,0,0,1,.51-.36,2.31,2.31,0,0,1,.86-.15,1.88,1.88,0,0,1,1.41.54,2.11,2.11,0,0,1,.53,1.52,2.09,2.09,0,0,1-.53,1.51,1.85,1.85,0,0,1-1.4.54,1.88,1.88,0,0,1-1.41-.54,2.05,2.05,0,0,1-.53-1.49m.83,0a1.51,1.51,0,0,0,.32,1,1,1,0,0,0,.79.35,1,1,0,0,0,.79-.35,1.56,1.56,0,0,0,.31-1,1.48,1.48,0,0,0-.3-1,1.11,1.11,0,0,0-1.6,0,1.48,1.48,0,0,0-.31,1" />
    <path class="tag-1" d="M21.56,23.24H23a2.93,2.93,0,0,1,.76.08,1.35,1.35,0,0,1,.6.37,1.7,1.7,0,0,1,.38.64,2.88,2.88,0,0,1,.13.94,2.68,2.68,0,0,1-.12.85,1.7,1.7,0,0,1-.43.7,1.33,1.33,0,0,1-.56.32,2.34,2.34,0,0,1-.72.09H21.56Zm.81.68v2.63H23a2.72,2.72,0,0,0,.48,0,.86.86,0,0,0,.33-.17A1,1,0,0,0,24,26a2.78,2.78,0,0,0,.08-.73,2.51,2.51,0,0,0-.08-.71.92.92,0,0,0-.23-.39.76.76,0,0,0-.37-.18,3.3,3.3,0,0,0-.66,0Z" />
    <rect class="tag-1" x="25.56" y="23.24" width="0.8" height="3.98" />
    <path class="tag-1" d="M27,25.26a2.52,2.52,0,0,1,.18-1,1.93,1.93,0,0,1,.38-.55,1.49,1.49,0,0,1,.51-.36,2.28,2.28,0,0,1,.86-.15,1.89,1.89,0,0,1,1.41.54,2.11,2.11,0,0,1,.52,1.52,2.08,2.08,0,0,1-.52,1.51,2.1,2.1,0,0,1-2.81,0A2.05,2.05,0,0,1,27,25.26m.83,0a1.56,1.56,0,0,0,.31,1,1,1,0,0,0,.8.35,1,1,0,0,0,.79-.35,1.56,1.56,0,0,0,.3-1,1.48,1.48,0,0,0-.3-1,1,1,0,0,0-.79-.34,1,1,0,0,0-.8.34,1.48,1.48,0,0,0-.31,1" />
    <path class="tag-1" d="M15.67,20.61H15l-.29-.75H13.34l-.27.75h-.71l1.29-3.3h.7ZM14.44,19.3,14,18.08l-.45,1.22Z" />
    <polygon class="tag-1" points="16.04 20.61 16.04 17.34 16.71 17.34 16.71 20.05 18.36 20.05 18.36 20.61 16.04 20.61" />
    <polygon class="tag-1" points="19.24 20.61 19.24 17.87 18.26 17.87 18.26 17.31 20.88 17.31 20.88 17.87 19.91 17.87 19.91 20.61 19.24 20.61" />
    <path class="tag-1" d="M21.09,19a2.12,2.12,0,0,1,.15-.85,1.57,1.57,0,0,1,.31-.45,1.39,1.39,0,0,1,.43-.3,1.91,1.91,0,0,1,.71-.13,1.51,1.51,0,0,1,1.16.46A1.69,1.69,0,0,1,24.29,19a1.71,1.71,0,0,1-.43,1.25,1.54,1.54,0,0,1-1.16.45,1.52,1.52,0,0,1-1.17-.45A1.68,1.68,0,0,1,21.09,19m.69,0a1.27,1.27,0,0,0,.26.85.91.91,0,0,0,1.31,0A1.26,1.26,0,0,0,23.6,19a1.29,1.29,0,0,0-.24-.85.93.93,0,0,0-1.33,0,1.26,1.26,0,0,0-.25.86" />
    <polygon class="tag-1" points="26.09 20.61 26.09 17.31 28.54 17.31 28.54 17.87 26.76 17.87 26.76 18.6 28.41 18.6 28.41 19.16 26.76 19.16 26.76 20.05 28.6 20.05 28.6 20.61 26.09 20.61" />
    <polygon class="tag-1" points="29.17 20.61 29.17 17.31 29.82 17.31 31.17 19.51 31.17 17.31 31.79 17.31 31.79 20.61 31.12 20.61 29.79 18.46 29.79 20.61 29.17 20.61" />
    <polygon class="tag-1" points="16.94 37.4 16.94 35.43 17.54 35.43 17.89 36.77 18.25 35.43 18.84 35.43 18.84 37.4 18.47 37.4 18.47 35.85 18.08 37.4 17.7 37.4 17.31 35.85 17.31 37.4 16.94 37.4" />
    <rect class="tag-1" x="19.23" y="35.43" width="0.4" height="1.97" />
    <polygon class="tag-1" points="20.01 37.4 20.01 35.43 20.39 35.43 21.2 36.74 21.2 35.43 21.57 35.43 21.57 37.4 21.17 37.4 20.38 36.12 20.38 37.4 20.01 37.4" />
    <path class="tag-1" d="M21.89,36.76l.39,0a.47.47,0,0,0,.14.29.44.44,0,0,0,.29.09A.44.44,0,0,0,23,37a.24.24,0,0,0,.1-.19.16.16,0,0,0,0-.12.42.42,0,0,0-.14-.09l-.32-.08a1.19,1.19,0,0,1-.45-.2A.51.51,0,0,1,22,36a.52.52,0,0,1,.09-.29.47.47,0,0,1,.24-.19.94.94,0,0,1,.39-.07.83.83,0,0,1,.56.16.56.56,0,0,1,.19.43L23,36a.42.42,0,0,0-.11-.22.57.57,0,0,0-.53,0,.15.15,0,0,0,0,.24,1.2,1.2,0,0,0,.36.13,2,2,0,0,1,.43.14.54.54,0,0,1,.22.2.63.63,0,0,1,.08.32.59.59,0,0,1-.09.31.64.64,0,0,1-.27.22,1.08,1.08,0,0,1-.43.07.81.81,0,0,1-.57-.17.68.68,0,0,1-.24-.5" />
    <path class="tag-1" d="M25.6,37.4h-.43L25,37h-.79l-.16.45h-.43l.77-2h.42Zm-.73-.78-.27-.73-.27.73Z" />
    <polygon class="tag-1" points="25.82 37.4 25.82 35.45 26.22 35.45 26.22 37.07 27.21 37.07 27.21 37.4 25.82 37.4" />
</svg>
