<svg xmlns="http://www.w3.org/2000/svg" xmlns:xlink="http://www.w3.org/1999/xlink" width="1024" zoomAndPan="magnify" viewBox="0 0 768 767.999994" height="1024" preserveAspectRatio="xMidYMid meet" version="1.0"><defs><g/><clipPath id="d8574586ae"><path d="M 272 378 L 377 378 L 377 519 L 272 519 Z M 272 378 " clip-rule="nonzero"/></clipPath><clipPath id="f568d452d3"><path d="M 240.207031 402.242188 L 361.054688 366.589844 L 396.710938 487.441406 L 275.859375 523.09375 Z M 240.207031 402.242188 " clip-rule="nonzero"/></clipPath><clipPath id="92c108a700"><path d="M 240.207031 402.242188 L 361.054688 366.589844 L 396.710938 487.441406 L 275.859375 523.09375 Z M 240.207031 402.242188 " clip-rule="nonzero"/></clipPath><clipPath id="2a05ba2c7b"><path d="M 316 392 L 325 392 L 325 401 L 316 401 Z M 316 392 " clip-rule="nonzero"/></clipPath><clipPath id="e3f73c5320"><path d="M 240.207031 402.242188 L 361.054688 366.589844 L 396.710938 487.441406 L 275.859375 523.09375 Z M 240.207031 402.242188 " clip-rule="nonzero"/></clipPath><clipPath id="9b159eaaa4"><path d="M 240.207031 402.242188 L 361.054688 366.589844 L 396.710938 487.441406 L 275.859375 523.09375 Z M 240.207031 402.242188 " clip-rule="nonzero"/></clipPath><clipPath id="16db3ce039"><path d="M 294 396 L 317 396 L 317 420 L 294 420 Z M 294 396 " clip-rule="nonzero"/></clipPath><clipPath id="e7be3f02fc"><path d="M 240.207031 402.242188 L 361.054688 366.589844 L 396.710938 487.441406 L 275.859375 523.09375 Z M 240.207031 402.242188 " clip-rule="nonzero"/></clipPath><clipPath id="de57178692"><path d="M 240.207031 402.242188 L 361.054688 366.589844 L 396.710938 487.441406 L 275.859375 523.09375 Z M 240.207031 402.242188 " clip-rule="nonzero"/></clipPath></defs><g fill="#ffffff" fill-opacity="1"><g transform="translate(102.276655, 476.849586)"><g><path d="M 13.171875 0 L 13.171875 -124.671875 L 28.140625 -124.671875 L 28.140625 -11.9375 L 86.203125 -11.9375 L 86.203125 0 Z M 13.171875 0 "/></g></g></g><g fill="#ffffff" fill-opacity="1"><g transform="translate(182.410825, 476.849586)"><g><path d="M 44.515625 2.140625 C 34.066406 2.140625 25.753906 -1.035156 19.578125 -7.390625 C 13.410156 -13.742188 10.328125 -23.507812 10.328125 -36.6875 L 10.328125 -88.328125 L 25.296875 -88.328125 L 25.296875 -38.296875 C 25.296875 -19.890625 32.832031 -10.6875 47.90625 -10.6875 C 55.625 -10.6875 62.003906 -13.445312 67.046875 -18.96875 C 72.097656 -24.488281 74.625 -32.351562 74.625 -42.5625 L 74.625 -88.328125 L 89.578125 -88.328125 L 89.578125 0 L 76.046875 0 L 74.984375 -15.84375 C 72.242188 -10.269531 68.171875 -5.878906 62.765625 -2.671875 C 57.367188 0.535156 51.285156 2.140625 44.515625 2.140625 Z M 44.515625 2.140625 "/></g></g></g><g fill="#000000" fill-opacity="1"><g transform="translate(270.921181, 476.849586)"><g/></g></g><g fill="#000000" fill-opacity="1"><g transform="translate(304.755042, 476.849586)"><g/></g></g><g fill="#000000" fill-opacity="1"><g transform="translate(338.588902, 476.849586)"><g/></g></g><g fill="#ff3131" fill-opacity="1"><g transform="translate(372.428989, 476.849586)"><g><path d="M 41.671875 2.140625 C 34.304688 2.140625 28.191406 0.894531 23.328125 -1.59375 C 18.460938 -4.09375 14.84375 -7.421875 12.46875 -11.578125 C 10.09375 -15.734375 8.90625 -20.242188 8.90625 -25.109375 C 8.90625 -34.128906 12.347656 -41.070312 19.234375 -45.9375 C 26.117188 -50.8125 35.5 -53.25 47.375 -53.25 L 71.234375 -53.25 L 71.234375 -54.3125 C 71.234375 -62.03125 69.210938 -67.878906 65.171875 -71.859375 C 61.140625 -75.835938 55.738281 -77.828125 48.96875 -77.828125 C 43.15625 -77.828125 38.140625 -76.367188 33.921875 -73.453125 C 29.710938 -70.546875 27.070312 -66.304688 26 -60.734375 L 10.6875 -60.734375 C 11.28125 -67.140625 13.445312 -72.539062 17.1875 -76.9375 C 20.925781 -81.332031 25.582031 -84.6875 31.15625 -87 C 36.738281 -89.3125 42.675781 -90.46875 48.96875 -90.46875 C 61.320312 -90.46875 70.613281 -87.171875 76.84375 -80.578125 C 83.082031 -73.992188 86.203125 -65.238281 86.203125 -54.3125 L 86.203125 0 L 72.84375 0 L 71.953125 -15.84375 C 69.453125 -10.863281 65.796875 -6.617188 60.984375 -3.109375 C 56.179688 0.390625 49.742188 2.140625 41.671875 2.140625 Z M 43.984375 -10.5 C 49.679688 -10.5 54.578125 -11.984375 58.671875 -14.953125 C 62.773438 -17.921875 65.894531 -21.78125 68.03125 -26.53125 C 70.164062 -31.28125 71.234375 -36.269531 71.234375 -41.5 L 71.234375 -41.671875 L 48.625 -41.671875 C 39.832031 -41.671875 33.625 -40.15625 30 -37.125 C 26.382812 -34.101562 24.578125 -30.335938 24.578125 -25.828125 C 24.578125 -21.191406 26.269531 -17.476562 29.65625 -14.6875 C 33.039062 -11.894531 37.816406 -10.5 43.984375 -10.5 Z M 43.984375 -10.5 "/></g></g></g><g fill="#ff3131" fill-opacity="1"><g transform="translate(455.412406, 476.849586)"><g><path d="M 12.28125 39.1875 L 12.28125 -88.328125 L 25.828125 -88.328125 L 27.25 -73.734375 C 30.09375 -78.003906 34.15625 -81.859375 39.4375 -85.296875 C 44.726562 -88.742188 51.46875 -90.46875 59.65625 -90.46875 C 68.445312 -90.46875 76.109375 -88.445312 82.640625 -84.40625 C 89.171875 -80.375 94.242188 -74.851562 97.859375 -67.84375 C 101.484375 -60.84375 103.296875 -52.890625 103.296875 -43.984375 C 103.296875 -35.078125 101.484375 -27.148438 97.859375 -20.203125 C 94.242188 -13.265625 89.140625 -7.804688 82.546875 -3.828125 C 75.953125 0.148438 68.265625 2.140625 59.484375 2.140625 C 52.242188 2.140625 45.800781 0.65625 40.15625 -2.3125 C 34.519531 -5.28125 30.21875 -9.4375 27.25 -14.78125 L 27.25 39.1875 Z M 57.875 -10.859375 C 63.8125 -10.859375 69.035156 -12.253906 73.546875 -15.046875 C 78.054688 -17.835938 81.617188 -21.722656 84.234375 -26.703125 C 86.847656 -31.691406 88.15625 -37.515625 88.15625 -44.171875 C 88.15625 -50.816406 86.847656 -56.628906 84.234375 -61.609375 C 81.617188 -66.597656 78.054688 -70.488281 73.546875 -73.28125 C 69.035156 -76.070312 63.8125 -77.46875 57.875 -77.46875 C 51.9375 -77.46875 46.710938 -76.070312 42.203125 -73.28125 C 37.691406 -70.488281 34.128906 -66.597656 31.515625 -61.609375 C 28.910156 -56.628906 27.609375 -50.816406 27.609375 -44.171875 C 27.609375 -37.515625 28.910156 -31.691406 31.515625 -26.703125 C 34.128906 -21.722656 37.691406 -17.835938 42.203125 -15.046875 C 46.710938 -12.253906 51.9375 -10.859375 57.875 -10.859375 Z M 57.875 -10.859375 "/></g></g></g><g fill="#ff3131" fill-opacity="1"><g transform="translate(553.888628, 476.849586)"><g><path d="M 12.28125 39.1875 L 12.28125 -88.328125 L 25.828125 -88.328125 L 27.25 -73.734375 C 30.09375 -78.003906 34.15625 -81.859375 39.4375 -85.296875 C 44.726562 -88.742188 51.46875 -90.46875 59.65625 -90.46875 C 68.445312 -90.46875 76.109375 -88.445312 82.640625 -84.40625 C 89.171875 -80.375 94.242188 -74.851562 97.859375 -67.84375 C 101.484375 -60.84375 103.296875 -52.890625 103.296875 -43.984375 C 103.296875 -35.078125 101.484375 -27.148438 97.859375 -20.203125 C 94.242188 -13.265625 89.140625 -7.804688 82.546875 -3.828125 C 75.953125 0.148438 68.265625 2.140625 59.484375 2.140625 C 52.242188 2.140625 45.800781 0.65625 40.15625 -2.3125 C 34.519531 -5.28125 30.21875 -9.4375 27.25 -14.78125 L 27.25 39.1875 Z M 57.875 -10.859375 C 63.8125 -10.859375 69.035156 -12.253906 73.546875 -15.046875 C 78.054688 -17.835938 81.617188 -21.722656 84.234375 -26.703125 C 86.847656 -31.691406 88.15625 -37.515625 88.15625 -44.171875 C 88.15625 -50.816406 86.847656 -56.628906 84.234375 -61.609375 C 81.617188 -66.597656 78.054688 -70.488281 73.546875 -73.28125 C 69.035156 -76.070312 63.8125 -77.46875 57.875 -77.46875 C 51.9375 -77.46875 46.710938 -76.070312 42.203125 -73.28125 C 37.691406 -70.488281 34.128906 -66.597656 31.515625 -61.609375 C 28.910156 -56.628906 27.609375 -50.816406 27.609375 -44.171875 C 27.609375 -37.515625 28.910156 -31.691406 31.515625 -26.703125 C 34.128906 -21.722656 37.691406 -17.835938 42.203125 -15.046875 C 46.710938 -12.253906 51.9375 -10.859375 57.875 -10.859375 Z M 57.875 -10.859375 "/></g></g></g><g clip-path="url(#d8574586ae)"><g clip-path="url(#f568d452d3)"><g clip-path="url(#92c108a700)"><path fill="#ffffff" d="M 314.449219 380.339844 C 288.878906 387.882812 274.261719 414.730469 281.808594 440.300781 C 284.902344 450.789062 291.242188 459.433594 299.410156 465.460938 L 297.769531 468.472656 C 295.0625 467.699219 292.085938 468.871094 290.679688 471.449219 L 272.8125 504.273438 C 271.1875 507.261719 272.289062 511 275.277344 512.625 L 284.578125 517.6875 C 287.5625 519.3125 291.300781 518.210938 292.925781 515.226562 L 310.796875 482.398438 C 312.199219 479.820312 311.566406 476.6875 309.445312 474.828125 L 311.085938 471.816406 C 320.582031 475.402344 331.285156 476.039062 341.769531 472.945312 C 367.34375 465.402344 381.957031 438.554688 374.414062 412.984375 C 366.871094 387.414062 340.023438 372.796875 314.449219 380.339844 Z M 363.917969 446.136719 C 358.710938 455.699219 350.089844 462.664062 339.648438 465.746094 C 329.203125 468.824219 318.179688 467.65625 308.617188 462.449219 C 299.054688 457.242188 292.089844 448.621094 289.007812 438.175781 C 285.925781 427.734375 287.09375 416.710938 292.300781 407.148438 C 297.507812 397.582031 306.128906 390.621094 316.574219 387.539062 C 327.019531 384.457031 338.039062 385.625 347.605469 390.832031 C 357.167969 396.039062 364.132812 404.660156 367.214844 415.105469 C 370.296875 425.550781 369.125 436.570312 363.917969 446.136719 Z M 363.917969 446.136719 " fill-opacity="1" fill-rule="nonzero"/></g></g></g><g clip-path="url(#2a05ba2c7b)"><g clip-path="url(#e3f73c5320)"><g clip-path="url(#9b159eaaa4)"><path fill="#ffffff" d="M 324.371094 395.078125 C 324.445312 395.328125 324.496094 395.585938 324.519531 395.847656 C 324.542969 396.109375 324.542969 396.371094 324.515625 396.628906 C 324.484375 396.890625 324.433594 397.148438 324.355469 397.398438 C 324.277344 397.648438 324.175781 397.886719 324.050781 398.117188 C 323.925781 398.347656 323.777344 398.566406 323.609375 398.765625 C 323.441406 398.96875 323.257812 399.152344 323.050781 399.316406 C 322.847656 399.480469 322.628906 399.625 322.398438 399.746094 C 322.164062 399.867188 321.921875 399.964844 321.671875 400.039062 C 321.417969 400.113281 321.164062 400.164062 320.902344 400.1875 C 320.640625 400.210938 320.378906 400.210938 320.117188 400.179688 C 319.859375 400.152344 319.601562 400.101562 319.351562 400.023438 C 319.101562 399.945312 318.859375 399.84375 318.628906 399.71875 C 318.402344 399.59375 318.183594 399.445312 317.984375 399.277344 C 317.78125 399.109375 317.597656 398.921875 317.433594 398.71875 C 317.269531 398.515625 317.125 398.296875 317.003906 398.066406 C 316.882812 397.832031 316.785156 397.589844 316.710938 397.339844 C 316.636719 397.085938 316.585938 396.832031 316.5625 396.570312 C 316.539062 396.308594 316.539062 396.046875 316.566406 395.785156 C 316.597656 395.527344 316.648438 395.269531 316.726562 395.019531 C 316.804688 394.769531 316.90625 394.527344 317.03125 394.296875 C 317.15625 394.066406 317.304688 393.851562 317.472656 393.652344 C 317.640625 393.449219 317.824219 393.265625 318.03125 393.101562 C 318.234375 392.9375 318.453125 392.792969 318.683594 392.671875 C 318.917969 392.550781 319.160156 392.449219 319.410156 392.375 C 319.664062 392.300781 319.917969 392.253906 320.179688 392.230469 C 320.441406 392.207031 320.703125 392.207031 320.964844 392.234375 C 321.222656 392.261719 321.480469 392.316406 321.730469 392.394531 C 321.980469 392.472656 322.222656 392.574219 322.453125 392.699219 C 322.679688 392.824219 322.898438 392.972656 323.097656 393.140625 C 323.300781 393.308594 323.484375 393.492188 323.648438 393.699219 C 323.8125 393.902344 323.957031 394.121094 324.078125 394.351562 C 324.199219 394.585938 324.296875 394.828125 324.371094 395.078125 Z M 324.371094 395.078125 " fill-opacity="1" fill-rule="nonzero"/></g></g></g><g clip-path="url(#16db3ce039)"><g clip-path="url(#e7be3f02fc)"><g clip-path="url(#de57178692)"><path fill="#ffffff" d="M 309.933594 397.015625 C 309.527344 397.230469 299.867188 402.492188 295.230469 414.054688 C 294.378906 416.171875 295.40625 418.574219 297.523438 419.421875 C 298.421875 419.78125 299.367188 419.804688 300.226562 419.550781 C 301.394531 419.203125 302.402344 418.347656 302.890625 417.125 C 306.355469 408.484375 313.6875 404.367188 313.835938 404.285156 C 315.832031 403.207031 316.585938 400.714844 315.515625 398.707031 C 314.445312 396.699219 311.941406 395.9375 309.933594 397.011719 Z M 309.933594 397.015625 " fill-opacity="1" fill-rule="nonzero"/></g></g></g></svg>